<svg width="152" height="102" viewBox="0 0 152 102" fill="none" xmlns="http://www.w3.org/2000/svg">
<path d="M135.257 87.7L128.943 80.6571L122.386 87.7H109.514H81.8285V54.9143H68.957L84.9856 18.2428H100.528L106.114 30.8714V18.2428H125.543L128.943 27.7143L132.343 18.2428H147.157V12.6571C147.157 9.25712 144.486 6.58569 141.086 6.58569H10.9142C7.5142 6.58569 4.84277 9.25712 4.84277 12.6571V91.5857C4.84277 94.9857 7.5142 97.6571 10.9142 97.6571H141.086C144.486 97.6571 147.157 94.9857 147.157 91.5857V87.7H135.257Z" fill="#0071CE"/>
<path d="M136.957 83.8142H147.157L133.8 69.4857L147.157 55.4H137.2L128.7 64.6285L120.443 55.4H110.243L123.843 69.7285L110.243 83.8142H120.2L128.7 74.5857L136.957 83.8142Z" fill="#0071CE"/>
<path d="M93.9716 77.2571V72.8857H110V66.3285H93.9716V61.9571H110.243V55.4H86.2002V83.8142H110.243V77.2571H93.9716Z" fill="#0071CE"/>
<path d="M139.629 51.2714H146.915V22.6143L135.257 22.8571L128.943 40.5857L122.386 22.8571H110.243V51.2714H118.015V31.3571L125.3 51.2714H132.1L139.629 31.3571V51.2714Z" fill="#0071CE"/>
<path d="M97.8572 22.8571H87.9001L75.2715 51.2714H83.7715L86.2001 45.6857H99.3143L101.743 51.2714H110.486L97.8572 22.8571ZM88.8715 39.1285L92.7572 29.9L96.6429 39.1285H88.8715Z" fill="#0071CE"/>
<path d="M140.114 68.7571L147.157 76.5286V60.9857L140.114 68.7571Z" fill="#0071CE"/>
</svg>
