<?xml version="1.0" encoding="utf-8"?>
<!-- Generator: Adobe Illustrator 15.0.2, SVG Export Plug-In . SVG Version: 6.00 Build 0)  -->
<!DOCTYPE svg PUBLIC "-//W3C//DTD SVG 1.1//EN" "http://www.w3.org/Graphics/SVG/1.1/DTD/svg11.dtd">
<svg version="1.1" id="Layer_1" xmlns="http://www.w3.org/2000/svg" xmlns:xlink="http://www.w3.org/1999/xlink" x="0px" y="0px"
	 width="156.455px" height="31.392px" viewBox="0 0 156.455 31.392" enable-background="new 0 0 156.455 31.392"
	 xml:space="preserve">
<g>
	<g>
		<path fill="#1D1D1B" d="M41.889,0.599c-4.238,0-6.669,3.209-6.669,8.805c0,5.55,2.431,8.733,6.669,8.733
			c4.3,0,6.668-3.102,6.668-8.733C48.557,3.808,46.126,0.599,41.889,0.599z M41.889,15.384c-3.22,0-3.701-3.762-3.701-6.004
			c0-2.251,0.481-6.029,3.701-6.029s3.7,3.777,3.7,6.029C45.589,12.119,44.946,15.384,41.889,15.384z"/>
		<g>
			<path fill="#1D1D1B" d="M52.671,9.28c2.377,0,3.74-1.573,3.74-4.316c0-2.773-1.363-4.364-3.74-4.364s-3.74,1.591-3.74,4.364
				C48.931,7.707,50.294,9.28,52.671,9.28z M52.671,2.919c0.815,0,1.229,0.68,1.229,2.02s-0.413,2.02-1.229,2.02
				c-0.83,0-1.252-0.68-1.252-2.02S51.841,2.919,52.671,2.919z"/>
			<path fill="#1D1D1B" d="M61.192,9.36c-2.377,0-3.74,1.591-3.74,4.364c0,2.743,1.363,4.316,3.74,4.316s3.74-1.573,3.74-4.316
				C64.933,10.951,63.569,9.36,61.192,9.36z M61.216,15.72c-0.83,0-1.252-0.68-1.252-2.02s0.422-2.02,1.252-2.02
				c0.815,0,1.229,0.68,1.229,2.02S62.031,15.72,61.216,15.72z"/>
			<polygon fill="#1D1D1B" points="61.711,0.791 48.836,17.873 52.152,17.873 65.027,0.791 			"/>
		</g>
		<path fill="#1D1D1B" d="M84.126,0.071h-3.094l-7.299,17.801h3.074l1.8-4.44h7.968l1.8,4.44h3.075L84.126,0.071z M79.71,10.728
			l2.882-7.079l2.881,7.079H79.71z"/>
		<path fill="#1D1D1B" d="M98.951,0.071h-6.356v17.801h2.92v-6.528h3.292c4.314,0,6.789-2.072,6.789-5.685
			C105.596,2.056,103.235,0.071,98.951,0.071z M95.515,2.775h3.34c2.522,0,3.749,0.959,3.749,2.932s-1.258,2.932-3.845,2.932h-3.244
			V2.775z"/>
	</g>
	<path fill="#1D1D1B" d="M115.659,10.668c2.426-0.741,3.952-2.739,3.952-5.272c0-3.334-2.412-5.324-6.452-5.324h-6.524v17.801h2.92
		V10.96h2.783l5.353,6.913h3.544L115.659,10.668z M116.619,5.348c0,1.891-1.152,2.932-3.244,2.932h-3.82V2.775h3.677
		C114.496,2.775,116.619,3.109,116.619,5.348z"/>
</g>
<g>
	<g>
		<path d="M8.331,24.24v2.772h3.688v0.827H8.331v3.397H7.438v-7.823h4.861v0.827H8.331z"/>
	</g>
	<g>
		<path fill="none" d="M8.331,24.24v2.772h3.688v0.827H8.331v3.397H7.438v-7.823h4.861v0.827H8.331z"/>
	</g>
	<g>
		<path d="M20.87,27.816c0,2.313-1.286,3.531-3.219,3.531c-1.889,0-3.196-1.207-3.196-3.452v-4.482h0.894v4.403
			c0,1.722,0.861,2.716,2.336,2.716c1.408,0,2.291-0.894,2.291-2.659v-4.459h0.895V27.816z"/>
	</g>
	<g>
		<path fill="none" d="M20.87,27.816c0,2.313-1.286,3.531-3.219,3.531c-1.889,0-3.196-1.207-3.196-3.452v-4.482h0.894v4.403
			c0,1.722,0.861,2.716,2.336,2.716c1.408,0,2.291-0.894,2.291-2.659v-4.459h0.895V27.816z"/>
	</g>
	<g>
		<path d="M24.602,28.018v3.218h-0.895v-7.823h2.806c1.754,0,2.771,0.816,2.771,2.247c0,1.296-0.905,2.111-2.012,2.313l2.525,3.263
			h-1.062l-2.492-3.218H24.602z M26.613,27.235c1.095,0,1.743-0.592,1.743-1.598c0-0.906-0.671-1.431-1.811-1.431h-1.944v3.028
			H26.613z"/>
	</g>
	<g>
		<path fill="none" d="M24.602,28.018v3.218h-0.895v-7.823h2.806c1.754,0,2.771,0.816,2.771,2.247c0,1.296-0.905,2.111-2.012,2.313
			l2.525,3.263h-1.062l-2.492-3.218H24.602z M26.613,27.235c1.095,0,1.743-0.592,1.743-1.598c0-0.906-0.671-1.431-1.811-1.431
			h-1.944v3.028H26.613z"/>
	</g>
	<g>
		<path d="M38.313,31.236h-0.727l-4.861-6.448v6.448h-0.872v-7.823h0.839l4.749,6.292v-6.292h0.872V31.236z"/>
	</g>
	<g>
		<path fill="none" d="M38.313,31.236h-0.727l-4.861-6.448v6.448h-0.872v-7.823h0.839l4.749,6.292v-6.292h0.872V31.236z"/>
	</g>
	<g>
		<path d="M41.229,31.236v-7.823h0.895v7.823H41.229z"/>
	</g>
	<g>
		<path fill="none" d="M41.229,31.236v-7.823h0.895v7.823H41.229z"/>
	</g>
	<g>
		<path d="M47.409,24.24v6.996h-0.906V24.24H44.09v-0.827h5.732v0.827H47.409z"/>
	</g>
	<g>
		<path fill="none" d="M47.409,24.24v6.996h-0.906V24.24H44.09v-0.827h5.732v0.827H47.409z"/>
	</g>
	<g>
		<path d="M58.114,27.816c0,2.313-1.286,3.531-3.219,3.531c-1.889,0-3.196-1.207-3.196-3.452v-4.482h0.894v4.403
			c0,1.722,0.861,2.716,2.336,2.716c1.408,0,2.291-0.894,2.291-2.659v-4.459h0.895V27.816z"/>
	</g>
	<g>
		<path fill="none" d="M58.114,27.816c0,2.313-1.286,3.531-3.219,3.531c-1.889,0-3.196-1.207-3.196-3.452v-4.482h0.894v4.403
			c0,1.722,0.861,2.716,2.336,2.716c1.408,0,2.291-0.894,2.291-2.659v-4.459h0.895V27.816z"/>
	</g>
	<g>
		<path d="M61.846,28.018v3.218h-0.895v-7.823h2.805c1.756,0,2.772,0.816,2.772,2.247c0,1.296-0.905,2.111-2.012,2.313l2.525,3.263
			H65.98l-2.492-3.218H61.846z M63.857,27.235c1.095,0,1.743-0.592,1.743-1.598c0-0.906-0.671-1.431-1.811-1.431h-1.944v3.028
			H63.857z"/>
	</g>
	<g>
		<path fill="none" d="M61.846,28.018v3.218h-0.895v-7.823h2.805c1.756,0,2.772,0.816,2.772,2.247c0,1.296-0.905,2.111-2.012,2.313
			l2.525,3.263H65.98l-2.492-3.218H61.846z M63.857,27.235c1.095,0,1.743-0.592,1.743-1.598c0-0.906-0.671-1.431-1.811-1.431h-1.944
			v3.028H63.857z"/>
	</g>
	<g>
		<path d="M69.992,24.24v2.638h3.688v0.827h-3.688v2.704h4.201v0.827h-5.096v-7.823h4.861v0.827H69.992z"/>
	</g>
	<g>
		<path fill="none" d="M69.992,24.24v2.638h3.688v0.827h-3.688v2.704h4.201v0.827h-5.096v-7.823h4.861v0.827H69.992z"/>
	</g>
	<g>
		<path d="M82.742,24.24v2.772h3.688v0.827h-3.688v3.397h-0.895v-7.823h4.861v0.827H82.742z"/>
	</g>
	<g>
		<path fill="none" d="M82.742,24.24v2.772h3.688v0.827h-3.688v3.397h-0.895v-7.823h4.861v0.827H82.742z"/>
	</g>
	<g>
		<path d="M88.954,31.236v-7.823h0.895v7.823H88.954z"/>
	</g>
	<g>
		<path fill="none" d="M88.954,31.236v-7.823h0.895v7.823H88.954z"/>
	</g>
	<g>
		<path d="M99.225,31.236h-0.727l-4.861-6.448v6.448h-0.872v-7.823h0.839l4.749,6.292v-6.292h0.872V31.236z"/>
	</g>
	<g>
		<path fill="none" d="M99.225,31.236h-0.727l-4.861-6.448v6.448h-0.872v-7.823h0.839l4.749,6.292v-6.292h0.872V31.236z"/>
	</g>
	<g>
		<path d="M103.034,29.168l-0.838,2.067h-0.928l3.207-7.823h1.129l3.219,7.823h-0.928l-0.838-2.067H103.034z M105.046,24.229
			l-1.688,4.146h3.375L105.046,24.229z"/>
	</g>
	<g>
		<path fill="none" d="M103.034,29.168l-0.838,2.067h-0.928l3.207-7.823h1.129l3.219,7.823h-0.928l-0.838-2.067H103.034z
			 M105.046,24.229l-1.688,4.146h3.375L105.046,24.229z"/>
	</g>
	<g>
		<path d="M117.327,31.236h-0.727l-4.861-6.448v6.448h-0.872v-7.823h0.839l4.749,6.292v-6.292h0.872V31.236z"/>
	</g>
	<g>
		<path fill="none" d="M117.327,31.236h-0.727l-4.861-6.448v6.448h-0.872v-7.823h0.839l4.749,6.292v-6.292h0.872V31.236z"/>
	</g>
	<g>
		<path d="M126.199,29.437l0.57,0.615c-0.727,0.86-1.699,1.341-2.962,1.341c-2.402,0-4.035-1.754-4.035-4.09
			c0-2.213,1.487-4.001,3.867-4.001c1.33,0,2.381,0.57,2.939,1.598l-0.659,0.503c-0.514-0.872-1.353-1.286-2.324-1.286
			c-1.788,0-2.884,1.419-2.884,3.174c0,1.9,1.296,3.286,3.084,3.286C124.735,30.577,125.507,30.208,126.199,29.437z"/>
	</g>
	<g>
		<path fill="none" d="M126.199,29.437l0.57,0.615c-0.727,0.86-1.699,1.341-2.962,1.341c-2.402,0-4.035-1.754-4.035-4.09
			c0-2.213,1.487-4.001,3.867-4.001c1.33,0,2.381,0.57,2.939,1.598l-0.659,0.503c-0.514-0.872-1.353-1.286-2.324-1.286
			c-1.788,0-2.884,1.419-2.884,3.174c0,1.9,1.296,3.286,3.084,3.286C124.735,30.577,125.507,30.208,126.199,29.437z"/>
	</g>
	<g>
		<path d="M129.227,31.236v-7.823h0.895v7.823H129.227z"/>
	</g>
	<g>
		<path fill="none" d="M129.227,31.236v-7.823h0.895v7.823H129.227z"/>
	</g>
	<g>
		<path d="M139.497,31.236h-0.727l-4.86-6.448v6.448h-0.873v-7.823h0.839l4.749,6.292v-6.292h0.872V31.236z"/>
	</g>
	<g>
		<path fill="none" d="M139.497,31.236h-0.727l-4.86-6.448v6.448h-0.873v-7.823h0.839l4.749,6.292v-6.292h0.872V31.236z"/>
	</g>
	<g>
		<path d="M149.017,30.208c-0.715,0.637-1.799,1.184-3.095,1.184c-2.47,0-3.979-1.799-3.979-4.067c0-2.135,1.576-4.023,3.922-4.023
			c1.318,0,2.381,0.57,2.939,1.598l-0.659,0.503c-0.515-0.861-1.353-1.274-2.313-1.286c-1.732,0.011-2.95,1.475-2.95,3.196
			c0,1.889,1.162,3.274,3.073,3.274c0.85,0,1.62-0.325,2.179-0.727v-2.313h0.883V30.208z"/>
	</g>
	<g>
		<path fill="none" d="M149.017,30.208c-0.715,0.637-1.799,1.184-3.095,1.184c-2.47,0-3.979-1.799-3.979-4.067
			c0-2.135,1.576-4.023,3.922-4.023c1.318,0,2.381,0.57,2.939,1.598l-0.659,0.503c-0.515-0.861-1.353-1.274-2.313-1.286
			c-1.732,0.011-2.95,1.475-2.95,3.196c0,1.889,1.162,3.274,3.073,3.274c0.85,0,1.62-0.325,2.179-0.727v-2.313h0.883V30.208z"/>
	</g>
</g>
<rect fill="none" width="156.455" height="31.291"/>
</svg>
