<svg width="40" height="40" xmlns="http://www.w3.org/2000/svg" xmlns:xlink="http://www.w3.org/1999/xlink"><defs><path id="a" d="M0 0h22.032v32H0z"/></defs><g fill="none" fill-rule="evenodd"><g transform="translate(9 4)"><mask id="b" fill="#fff"><use xlink:href="#a"/></mask><path d="M11.016 0C4.933 0 0 4.828 0 10.785S11.016 32 11.016 32s11.016-15.258 11.016-21.215C22.032 4.828 17.099 0 11.016 0m0 1.185c5.407 0 9.805 4.307 9.805 9.6 0 4.135-6.364 14.168-9.805 19.131-3.442-4.962-9.805-14.993-9.805-19.13 0-5.294 4.397-9.6 9.805-9.6" fill="#000" mask="url(#b)"/></g><path d="M20.016 10.637c-2.34 0-4.237 1.857-4.237 4.148 0 2.291 1.897 4.148 4.237 4.148s4.237-1.857 4.237-4.148c0-2.29-1.897-4.148-4.237-4.148m0 1.185c1.67 0 3.026 1.33 3.026 2.963s-1.357 2.963-3.026 2.963c-1.67 0-3.027-1.33-3.027-2.963s1.357-2.963 3.027-2.963" fill="#000"/></g></svg>