<?xml version="1.0" encoding="utf-8"?>
<!-- Generator: Adobe Illustrator 26.2.1, SVG Export Plug-In . SVG Version: 6.00 Build 0)  -->
<svg version="1.1" id="Layer_1" xmlns="http://www.w3.org/2000/svg" xmlns:xlink="http://www.w3.org/1999/xlink" x="0px" y="0px"
	 viewBox="0 0 88 33.5" style="enable-background:new 0 0 88 33.5;" xml:space="preserve">
<g>
	<g>
		<g>
			<g>
				<path d="M29,32.8h-2.4V5L15.3,26.8h-1.6L2.4,5v27.8H0V0.3h2.3l12.2,23l12.3-23H29V32.8z"/>
				<path d="M55.2,27.2c-2.2,3.7-4.7,6.2-9.3,6.2c-5.7,0-9.4-3.2-9.4-8.5c0-4.1,2.6-7.1,7.4-9.9c-2.9-2.8-4.3-4.7-4.3-7.8
					c0-4.5,3-7.2,6.9-7.2c4,0,7.1,2.8,7.1,7c0,4.1-3.1,6.4-6.1,8.4l7.4,8.1l3.9-6.7l1.8,1.1l-4.3,7.2l5.5,6l-1.7,1.6L55.2,27.2z
					 M53.7,25.6l-8.3-8.9c-4.4,2.6-6.5,5-6.5,8.2c0,4,2.6,6.4,6.9,6.4C49.5,31.3,51.6,29,53.7,25.6z M45.9,13.9
					c2.8-1.8,5.3-3.8,5.3-6.9c0-2.8-1.9-4.8-4.6-4.8c-2.6,0-4.6,1.8-4.6,4.9C41.9,9.5,43.2,11.1,45.9,13.9z"/>
				<path d="M88,24.3c0,5.3-4.6,9.2-10.9,9.2c-5.9,0-10-2.4-12.3-7.1l1.9-1.2c2,4.1,5.4,6.1,10.5,6.1c5.1,0,8.6-2.8,8.6-7.1
					c0-4.2-4.3-5.5-8.8-6.8c-5.2-1.5-10.4-3.1-10.4-8.8C66.5,1.8,73,0,76.7,0c3.2,0,8.7,0.9,10.9,7l-2.1,0.7
					c-1.3-3.5-4.5-5.6-8.6-5.6c-4.9,0-8,2.5-8,6.5c0,4.1,4.2,5.3,8.6,6.5C82.7,16.7,88,18.2,88,24.3z"/>
			</g>
		</g>
	</g>
</g>
</svg>
