<svg xmlns="http://www.w3.org/2000/svg" viewBox="0 0 40 40"><path d="M3.5 35.6a.5.5 0 01-.252-.932c3.859-2.253 6.654-5.388 8.716-8.795A88.087 88.087 0 019.2 23.686c-4.873-4.039-7.052-6.707-6.475-7.93.441-.934 1.968-.642 2.468-.547 4.077.755 7.5 1.352 10.685 1.62.906-2.972 1.472-5.75 1.917-7.93.666-3.267.942-4.62 1.86-4.658 1.078-.033 1.757 1.536 4.978 12.32 3.922-.64 8.092-2.062 13.348-4.61a.5.5 0 11.436.9c-5.267 2.552-9.519 3.99-13.503 4.653.639 2.147 1.371 4.632 2.218 7.509l2.047 6.945c.496 1.253.429 2.147-.216 2.613-2.13 1.543-10.414-3.768-16.193-8.09-2.13 3.494-5.022 6.717-9.019 9.05a.492.492 0 01-.251.069zm9.771-9.968c6.784 5.115 13.825 9.03 15.104 8.132.217-.155.165-.708-.14-1.48l-2.061-6.99c-.835-2.835-1.585-5.385-2.256-7.64-2.459.334-4.835.38-7.314.218-.815 2.547-1.883 5.21-3.333 7.76zm-9.152-9.54c-.391 0-.488.09-.49.09-.127.253.535 1.86 5.102 5.798a87.91 87.91 0 003.733 3.037c1.334-2.37 2.336-4.844 3.111-7.223-3.194-.275-6.592-.866-10.566-1.602a4.85 4.85 0 00-.89-.1zm12.785.812c2.29.142 4.482.099 6.732-.195-2.013-6.735-3.27-10.616-3.916-11.377-.28.512-.618 2.164-.944 3.766-.44 2.154-.996 4.88-1.872 7.806z"/></svg>