<svg id="Layer_1" data-name="Layer 1" xmlns="http://www.w3.org/2000/svg" xmlns:xlink="http://www.w3.org/1999/xlink" viewBox="0 0 487.6 128.01"><defs><style>.cls-1,.cls-2{fill:none;}.cls-2{clip-rule:evenodd;}.cls-3{clip-path:url(#clip-path);}.cls-4{isolation:isolate;}.cls-5{clip-path:url(#clip-path-2);}.cls-6{clip-path:url(#clip-path-3);}.cls-7{fill:#2890c3;}.cls-8{clip-path:url(#clip-path-5);}.cls-9{fill:#28346a;}.cls-10{clip-path:url(#clip-path-7);}.cls-11{fill:#20274f;}.cls-12{clip-path:url(#clip-path-9);}</style><clipPath id="clip-path" transform="translate(-143 -320)"><rect class="cls-1" x="148" y="325" width="107" height="118"/></clipPath><clipPath id="clip-path-2" transform="translate(-143 -320)"><rect class="cls-1" x="147" y="325" width="102" height="119"/></clipPath><clipPath id="clip-path-3" transform="translate(-143 -320)"><path class="cls-2" d="M238.16,355c1.44-9.18,0-15.42-5-21.08-5.47-6.23-15.35-8.9-28-8.9H168.5a5.24,5.24,0,0,0-5.18,4.43L148,426.28a3.15,3.15,0,0,0,3.11,3.64H173.8l-1.56,9.91A2.75,2.75,0,0,0,175,443h19.09a4.6,4.6,0,0,0,4.54-3.87l.18-1,3.6-22.8.23-1.26a4.6,4.6,0,0,1,4.54-3.88H210c18.5,0,33-7.51,37.21-29.24,1.77-9.07.86-16.65-3.82-22a18.2,18.2,0,0,0-5.22-4"/></clipPath><clipPath id="clip-path-5" transform="translate(-143 -320)"><path class="cls-2" d="M185.6,355.1a4.6,4.6,0,0,1,4.54-3.87H218.9a59.77,59.77,0,0,1,9.49.69c.83.13,1.63.29,2.42.46s1.55.37,2.28.58l1.09.34a27.66,27.66,0,0,1,4,1.68c1.44-9.18,0-15.42-5-21.08-5.47-6.23-15.35-8.9-28-8.9H168.5a5.24,5.24,0,0,0-5.18,4.43L148,426.28a3.15,3.15,0,0,0,3.11,3.64H173.8l11.8-74.82"/></clipPath><clipPath id="clip-path-7" transform="translate(-143 -320)"><path class="cls-2" d="M238.47,355c1.44-9.19,0-15.44-5-21.11-5.49-6.23-15.41-8.9-28.09-8.9H168.57a5.26,5.26,0,0,0-5.2,4.43L148,426.36a3.15,3.15,0,0,0,3.12,3.64h22.73l5.71-36.1-.18,1.14a5.26,5.26,0,0,1,5.19-4.44h10.8c21.22,0,37.83-8.59,42.68-33.44.15-.74.27-1.45.38-2.15"/></clipPath><clipPath id="clip-path-9" transform="translate(-143 -320)"><path class="cls-1" d="M604.27,404.69a28.11,28.11,0,0,0,11.94-2.25,16.14,16.14,0,0,0,7.09-5.91,14.57,14.57,0,0,0,2.3-7.9,13.56,13.56,0,0,0-3.1-8.88,17.47,17.47,0,0,0-8.63-5.49,15.69,15.69,0,0,0,7.61-5.1,12.74,12.74,0,0,0,2.76-8.16,13.2,13.2,0,0,0-2.34-7.65,15.52,15.52,0,0,0-6.63-5.31,24.41,24.41,0,0,0-10-1.91,26,26,0,0,0-10.37,2,19.88,19.88,0,0,0-7.82,5.9l5.35,6.55a18.65,18.65,0,0,1,5.69-4.63,14.55,14.55,0,0,1,6.63-1.49,9.83,9.83,0,0,1,6.63,2.12,6.85,6.85,0,0,1,2.47,5.44,6.94,6.94,0,0,1-3.32,6,14.9,14.9,0,0,1-8.66,2.3v8.41q6.11,0,9.73,2.55a7.86,7.86,0,0,1,3.61,6.72,7.52,7.52,0,0,1-2.85,6q-2.85,2.38-8.11,2.38a22.4,22.4,0,0,1-14-5.1L586.58,399Q593.65,404.69,604.27,404.69Zm-85.35-.93V378.85a12.38,12.38,0,0,1,3.22-8.75,10.65,10.65,0,0,1,8.16-3.49,9.65,9.65,0,0,1,7.61,3.11q2.76,3.09,2.76,8.45v25.59h9.61V375.62q0-7.81-4.55-12.7T533.36,358a15.74,15.74,0,0,0-14.44,8.16v-7h-9.61v44.54Zm-20.4,0V359.22h-9.61v44.54Zm-4.85-54.15a5.91,5.91,0,0,0,4.34-1.78,6,6,0,0,0,0-8.5,5.92,5.92,0,0,0-4.34-1.79,6,6,0,0,0,0,12.07Zm-74.34,71.15a16.61,16.61,0,0,0,7.22-1.45,15.2,15.2,0,0,0,5.7-5.1,50.23,50.23,0,0,0,5.36-10.45l18.1-44.54H445.34L433.1,394.66l-14.62-35.44H407.86l20.74,44.54c-1.48,3.45-2.9,5.78-4.25,7a7.61,7.61,0,0,1-5.19,1.78,19.76,19.76,0,0,1-7.82-1.7l-2.8,7.57A25.65,25.65,0,0,0,419.33,420.76ZM381.6,397.3a9.82,9.82,0,0,1-6-1.57,5.23,5.23,0,0,1-2.05-4.38c0-3.12,1.75-5.16,5.23-6.12s8.57-1.42,15.26-1.36v4.5a9.71,9.71,0,0,1-4.08,6.46A13.77,13.77,0,0,1,381.6,397.3Zm-2.55,7.56a20.85,20.85,0,0,0,9.1-1.95,17.31,17.31,0,0,0,6.54-5.27l1.1,6.12h7.83V377.15q0-8.75-5.19-13.94T383,358q-13.25,0-17.25,8.58l6,4.68a8.54,8.54,0,0,1,3.92-4.17,13.91,13.91,0,0,1,6.28-1.27q6,0,9,3t3,8.37a95.4,95.4,0,0,0-17.21,1.36q-6.42,1.27-9.56,4.5t-3.15,9.1q0,6.29,4.21,9.48A17.33,17.33,0,0,0,379.05,404.86ZM337,373.75h-11.9V353H337q12.92,0,12.91,10.37a9.24,9.24,0,0,1-3.39,7.7Q343.11,373.75,337,373.75Zm-11.9,30V382.51h12.75q10.28,0,16.48-5t6.21-14.19q0-9.36-5.95-14.2t-16.92-4.84H314.88v59.5Z"/></clipPath></defs><title>new</title><g class="cls-3"><g class="cls-4"><g class="cls-5"><g class="cls-6"><g class="cls-3"><rect class="cls-7" width="110.04" height="128.01"/></g></g><g class="cls-8"><g class="cls-3"><rect class="cls-9" width="100.68" height="114.92"/></g></g><g class="cls-10"><g class="cls-3"><rect class="cls-11" width="101" height="115"/></g></g></g></g></g><g class="cls-12"><rect class="cls-11" x="166.88" y="12.54" width="320.72" height="93.21"/></g></svg>