<svg width="193" height="61" viewBox="0 0 193 61" fill="none" xmlns="http://www.w3.org/2000/svg">
<path d="M73.3615 1.76544L48.1893 59.3717H31.7663L19.379 13.3993C18.6269 10.5677 17.973 9.53029 15.6858 8.33733C11.9516 6.39419 5.78497 4.57112 0.359375 3.43963L0.72789 1.76544H27.1639C30.5336 1.76544 33.5628 3.91701 34.3279 7.63903L40.8701 40.973L57.0387 1.76448H73.3615V1.76544ZM137.71 40.5638C137.776 25.3597 115.791 24.5221 115.942 17.7303C115.989 15.6632 118.041 13.4655 122.532 12.9046C124.758 12.6251 130.892 12.4119 137.849 15.4826L140.578 3.26673C136.839 1.96522 132.03 0.712708 126.045 0.712708C110.689 0.712708 99.8816 8.54288 99.7905 19.755C99.6914 28.0482 107.504 32.676 113.391 35.4317C119.446 38.2537 121.478 40.0672 121.455 42.5914C121.412 46.4556 116.625 48.1615 112.152 48.2287C104.343 48.344 99.8115 46.202 96.1995 44.5912L93.3835 57.2115C97.0136 58.8089 103.714 60.2026 110.661 60.2727C126.983 60.2727 137.659 52.5396 137.71 40.5638ZM178.26 59.3717H192.629L180.087 1.76544H166.824C163.842 1.76544 161.327 3.43098 160.213 5.99173L136.899 59.3717H153.213L156.452 50.7674H176.385L178.26 59.3717ZM160.925 38.9607L169.102 17.3316L173.809 38.9607H160.925ZM95.5596 1.76544L82.7126 59.3717H67.1769L80.0288 1.76544H95.5596V1.76544Z" fill="#1434CB"/>
</svg>
